# xmcd CD database file
# Copyright (C) 1997 Ti Kan
# 
# Track frame offsets:
#     150
#     8187
#     21672
#     34755
#     42217
#     53437
#     67202
#     76380
#     86552
#     98507
#     104732
#     112022
#     123565
#     133155
#     146007
#     156840
#     168337
#     177855
#     188652
#     195657
#     210152
#     221145
# 
# Disc length: 3094 seconds
# 
# Revision: 1
# Processed by: cddbd v1.4b41PL1 Copyright (c) Steve Scherf et al.
# Submitted via: DiscPlay 4.0.4
# 
DISCID=3a0c1416
DTITLE=Blue Sky Boys - Farm and Fun Time Favorites
DYEAR=1900
DGENRE=
TTITLE0=Old-Time Camp Meeting
TTITLE1=Kentucky
TTITLE2=I'm Troubled, I'm Troubled
TTITLE3=Rubber Dolly
TTITLE4=The A-B-C Song
TTITLE5=The Sweetest Gift
TTITLE6=We Parted by the Riverside
TTITLE7=You Can Be a Millionaire with Me
TTITLE8=Oh Those Tombs
TTITLE9=The Girl I Left Behind
TTITLE10=I'll Be No Stranger There
TTITLE11=One Cold Winter's Eve
TTITLE12=Mountain Dew
TTITLE13=I', Going to Write to Heaven
TTITLE14=Golden Slippers
TTITLE15=This Train
TTITLE16=Roll On Buddy
TTITLE17=Just Tell Them That You Saw Me
TTITLE18=Sourwood Mountain
TTITLE19=What Does the Deep Sea Say?
TTITLE20=I Dreamed I Searched Heaven For You
TTITLE21=Listen to the Mockingbird
EXTD=
EXTT0=
EXTT1=
EXTT2=
EXTT3=
EXTT4=
EXTT5=
EXTT6=
EXTT7=
EXTT8=
EXTT9=
EXTT10=
EXTT11=
EXTT12=
EXTT13=
EXTT14=
EXTT15=
EXTT16=
EXTT17=
EXTT18=
EXTT19=
EXTT20=
EXTT21=
PLAYORDER=
